# xmcd
#
# Track frame offsets:
#	182
#	16640
#	31495
#	42810
#	55480
#	68470
#	81215
#	90665
#	108685
#	120140
#	132647
#	151635
#
# Disc length: 2204 seconds
#
# Revision: 0
# Processed by: cddbd v1.4PL0 Copyright (c) Steve Scherf et al.
# Submitted via: dBpowerAMP V4.0
#
DISCID=8b089a0c
DTITLE=Rod Stewart - The early years
DYEAR=1900
DGENRE=Blues
TTITLE0=I just got some
TTITLE1=Bright lights, big city
TTITLE2=Ain`t that lovin` you baby
TTITLE3=Mopper`s blues
TTITLE4=Why does it go on?
TTITLE5=Shake
TTITLE6=Keep your hands off her
TTITLE7=Don`t you tell nobody
TTITLE8=Just like i treat you
TTITLE9=The day will come
TTITLE10=Little miss understood
TTITLE11=Come home baby (with P.P.Arnold
EXTD=
EXTT0=
EXTT1=
EXTT2=
EXTT3=
EXTT4=
EXTT5=
EXTT6=
EXTT7=
EXTT8=
EXTT9=
EXTT10=
EXTT11=
PLAYORDER=
